<svg width="45" height="45" viewBox="0 0 45 45" fill="none" xmlns="http://www.w3.org/2000/svg">
<g clip-path="url(#clip0)">
<path d="M40.8589 5.64847H4.14114C1.85774 5.64847 0 7.50612 0 9.79242C0 12.0758 1.85774 13.9336 4.14114 13.9336H40.8589C43.1423 13.9336 45 12.0758 45 9.79242C45 7.50612 43.1423 5.64847 40.8589 5.64847Z" fill="#0B0D15"/>
<path d="M40.8589 18.3575H4.14114C1.85774 18.3575 0 20.2151 0 22.5014C0 24.7848 1.85774 26.6425 4.14114 26.6425H40.8589C43.1423 26.6425 45 24.7848 45 22.5014C45 20.2151 43.1423 18.3575 40.8589 18.3575V18.3575Z" fill="#0B0D15"/>
<path d="M40.8589 31.0664H4.14114C1.85774 31.0664 0 32.9242 0 35.2104C0 37.4938 1.85774 39.3515 4.14114 39.3515H40.8589C43.1423 39.3515 45 37.4938 45 35.2104C45 32.9242 43.1423 31.0664 40.8589 31.0664Z" fill="#0B0D15"/>
</g>
<defs>
<clipPath id="clip0">
<rect width="45" height="45" fill="white"/>
</clipPath>
</defs>
</svg>
