<svg width="39" height="39" viewBox="0 0 39 39" fill="none" xmlns="http://www.w3.org/2000/svg">
<path d="M19.4992 0C8.73105 0 0 8.73105 0 19.4992C0 30.2673 8.73105 39 19.4992 39C30.2673 39 39 30.2673 39 19.4992C39 8.73105 30.2673 0 19.4992 0ZM23.5585 30.2211C22.5548 30.6173 21.7558 30.9177 21.1566 31.1257C20.559 31.3337 19.864 31.4377 19.0733 31.4377C17.8583 31.4377 16.9124 31.1406 16.2389 30.5479C15.5653 29.9553 15.2302 29.2042 15.2302 28.2913C15.2302 27.9364 15.255 27.5732 15.3045 27.2034C15.3557 26.8337 15.4366 26.4177 15.5472 25.9505L16.8034 21.5131C16.914 21.0872 17.0098 20.6828 17.0857 20.3064C17.1617 19.9267 17.198 19.5784 17.198 19.2615C17.198 18.6969 17.0808 18.3007 16.848 18.0778C16.6119 17.855 16.1679 17.746 15.5059 17.746C15.1823 17.746 14.8489 17.7939 14.5072 17.8946C14.1688 17.9986 13.8749 18.0927 13.6339 18.1851L13.9657 16.8183C14.7878 16.4832 15.5752 16.1959 16.3263 15.9582C17.0775 15.7172 17.7873 15.5983 18.4559 15.5983C19.6626 15.5983 20.5937 15.8922 21.249 16.4733C21.9011 17.056 22.2296 17.8137 22.2296 18.7448C22.2296 18.9379 22.2065 19.278 22.1619 19.7633C22.1173 20.2503 22.0331 20.6943 21.911 21.1021L20.6613 25.5262C20.559 25.8811 20.4682 26.2872 20.3857 26.7412C20.3048 27.1952 20.2651 27.5418 20.2651 27.7746C20.2651 28.3623 20.3956 28.7634 20.6597 28.9764C20.9205 29.1893 21.3778 29.2966 22.0249 29.2966C22.3303 29.2966 22.672 29.2422 23.0583 29.1365C23.4413 29.0309 23.7186 28.9368 23.8936 28.8559L23.5585 30.2211ZM23.3373 12.2637C22.7545 12.8052 22.053 13.0759 21.2325 13.0759C20.4137 13.0759 19.7072 12.8052 19.1195 12.2637C18.5351 11.7223 18.2396 11.0636 18.2396 10.2943C18.2396 9.52673 18.5368 8.86641 19.1195 8.32C19.7072 7.77194 20.4137 7.49956 21.2325 7.49956C22.053 7.49956 22.7562 7.77194 23.3373 8.32C23.92 8.86641 24.2122 9.52673 24.2122 10.2943C24.2122 11.0653 23.92 11.7223 23.3373 12.2637Z" fill="#535BFA"/>
</svg>
