<svg width="35" height="37" viewBox="0 0 35 37" fill="none" xmlns="http://www.w3.org/2000/svg">
<g clip-path="url(#clip0)" filter="url(#filter0_d)">
<path d="M28.307 9.45327C28.0352 9.02846 27.4744 8.9435 27.0667 9.23237L24.3139 11.3055C23.974 11.5603 23.8721 12.0361 24.093 12.4099C24.7896 13.5994 25.1465 14.8738 25.1465 16.1992C25.1465 20.4132 21.714 23.8457 17.5 23.8457C13.286 23.8457 9.85352 20.4132 9.85352 16.1992C9.85352 12.274 12.8271 9.02846 16.6504 8.60366V11.1016C16.6504 11.6113 17.0582 11.9342 17.5 11.9512C17.6699 11.9512 17.8569 11.9001 18.0098 11.7812L24.8066 6.68365C25.2655 6.34381 25.2655 5.66406 24.8066 5.32422L18.0098 0.169922C17.8569 0.0510904 17.6699 5.72205e-05 17.5 5.72205e-05C17.0582 5.72205e-05 16.6504 0.35695 16.6504 0.849667V3.48918C10.0234 3.91393 4.75586 9.45327 4.75586 16.1992C4.75586 23.234 10.4652 29 17.5 29C24.5348 29 30.2441 23.234 30.2441 16.1992C30.2441 13.8203 29.5644 11.4923 28.307 9.45327Z" fill="#535BFA"/>
<path d="M18.0098 11.7812C17.8569 11.9001 17.6699 11.9512 17.5 11.9512V0C17.6699 0 17.8569 0.0510332 18.0098 0.169865L24.8066 5.32416C25.2655 5.66401 25.2655 6.34375 24.8066 6.68359L18.0098 11.7812Z" fill="#535BFA"/>
<path d="M30.2441 16.1992C30.2441 23.234 24.5348 29 17.5 29V23.8457C21.714 23.8457 25.1465 20.4132 25.1465 16.1992C25.1465 14.8738 24.7896 13.5994 24.093 12.4099C23.8721 12.0361 23.974 11.5603 24.3139 11.3055L27.0666 9.23237C27.4744 8.94356 28.0352 9.02846 28.307 9.45326C29.5644 11.4923 30.2441 13.8203 30.2441 16.1992Z" fill="#535BFA"/>
</g>
<defs>
<filter id="filter0_d" x="-1" y="0" width="37" height="37" filterUnits="userSpaceOnUse" color-interpolation-filters="sRGB">
<feFlood flood-opacity="0" result="BackgroundImageFix"/>
<feColorMatrix in="SourceAlpha" type="matrix" values="0 0 0 0 0 0 0 0 0 0 0 0 0 0 0 0 0 0 127 0"/>
<feOffset dy="4"/>
<feGaussianBlur stdDeviation="2"/>
<feColorMatrix type="matrix" values="0 0 0 0 0 0 0 0 0 0 0 0 0 0 0 0 0 0 0.25 0"/>
<feBlend mode="normal" in2="BackgroundImageFix" result="effect1_dropShadow"/>
<feBlend mode="normal" in="SourceGraphic" in2="effect1_dropShadow" result="shape"/>
</filter>
<clipPath id="clip0">
<rect width="29" height="29" fill="white" transform="translate(3)"/>
</clipPath>
</defs>
</svg>
